<svg width="48" height="48" viewBox="0 0 48 48" fill="none" xmlns="http://www.w3.org/2000/svg">
<path fill-rule="evenodd" clip-rule="evenodd" d="M33.8201 3.32016L45.2801 14.8002C45.9851 15.5742 46.3585 16.5939 46.3201 17.6402V33.6402C46.3201 36.8228 45.0558 39.875 42.8054 42.1254C40.555 44.3759 37.5027 45.6402 34.3201 45.6402H23.3001H22.1001H21.9801L20.9201 45.4802H20.7801L19.7601 45.2202C19.4261 45.1212 19.0988 45.0009 18.7801 44.8602H18.6601C18.3394 44.7299 18.0256 44.583 17.7201 44.4202H17.6201C17.5363 44.3699 17.4526 44.3212 17.3692 44.2727C17.1541 44.1477 16.9419 44.0243 16.7401 43.8802H16.6401C16.3541 43.6982 16.0802 43.4977 15.8201 43.2802L15.7001 43.1802C15.4524 42.976 15.2185 42.7555 15.0001 42.5202L14.8401 42.3802C14.7893 42.3242 14.7371 42.2683 14.6846 42.212C14.5308 42.047 14.3743 41.8791 14.2401 41.7002L14.0601 41.5002C13.8801 41.2802 13.7201 41.0602 13.5601 40.8202L13.3801 40.5602L12.9601 39.8802L12.7801 39.5402C12.745 39.463 12.6952 39.3882 12.6452 39.3134C12.5528 39.1749 12.4601 39.036 12.4601 38.8802C12.3948 38.7519 12.3412 38.6181 12.3001 38.4802C12.2604 38.4007 12.2396 38.3118 12.2189 38.2235C12.1876 38.0894 12.1566 37.9566 12.0601 37.8602C11.9772 37.7772 11.9749 37.6997 11.9723 37.6163C11.97 37.5389 11.9675 37.4565 11.9001 37.3602C11.7601 37.1602 11.7601 36.9602 11.7601 36.7602C11.7041 36.5827 11.6574 36.4025 11.6201 36.2202V35.6402V35.0402V34.0002C11.6201 33.6023 11.7782 33.2208 12.0595 32.9395C12.3408 32.6582 12.7223 32.5002 13.1201 32.5002C13.5179 32.5002 13.8995 32.6582 14.1808 32.9395C14.4621 33.2208 14.6201 33.6023 14.6201 34.0002C14.6004 34.3332 14.6004 34.6671 14.6201 35.0002C14.671 35.494 14.7647 35.9825 14.9001 36.4602V36.6402C15.0382 37.109 15.2189 37.5643 15.4401 38.0002L15.5601 38.2202C15.7624 38.6184 15.9965 38.9996 16.2601 39.3602L16.5201 39.6602C16.7711 39.9738 17.0381 40.2742 17.3201 40.5602L17.8001 40.9402C18.0533 41.1576 18.3205 41.358 18.6001 41.5402C18.8423 41.6995 19.0964 41.8399 19.3601 41.9602C19.4508 42.0055 19.5387 42.0537 19.6259 42.1016C19.7693 42.1803 19.9108 42.258 20.0601 42.3202C20.4267 42.4545 20.8007 42.568 21.1801 42.6602L21.6801 42.8202C22.2656 42.9415 22.8622 43.0018 23.4601 43.0002H34.4601C36.8454 42.9949 39.1316 42.045 40.8182 40.3583C42.5049 38.6716 43.4548 36.3855 43.4601 34.0002V18.7802H40.2801C37.628 18.7802 35.0844 17.7266 33.209 15.8512C31.3337 13.9759 30.2801 11.4323 30.2801 8.78016V5.22016H23.4201C22.9171 5.2252 22.4154 5.27203 21.9201 5.36016H21.6601C20.1402 5.65121 18.7251 6.34149 17.5601 7.36016C16.8449 7.9736 16.2308 8.69577 15.7401 9.50016C15.6064 9.71984 15.4184 9.90144 15.1943 10.0275C14.9701 10.1536 14.7173 10.2199 14.4601 10.2202C14.1841 10.2253 13.9127 10.1488 13.6801 10.0002C13.357 9.79385 13.1251 9.47162 13.0321 9.09967C12.9391 8.72772 12.9921 8.33428 13.1801 8.00016L13.7201 7.24016C13.8194 7.13183 13.9128 7.01834 14.0001 6.90016L14.2401 6.50016L14.9401 5.72016C15.0431 5.63706 15.137 5.54319 15.2201 5.44016C15.5201 5.16016 15.8401 4.90016 16.1601 4.64016L16.3401 4.52016C18.3888 2.98545 20.8803 2.15728 23.4401 2.16016H31.0001C32.0564 2.15932 33.0702 2.57632 33.8201 3.32016ZM35.3304 13.7299C36.6431 15.0427 38.4236 15.7802 40.2801 15.7802H42.0001L33.2801 7.08016V8.78016C33.2801 10.6367 34.0176 12.4172 35.3304 13.7299ZM1.55998 14.2994C1.4902 15.0943 1.5955 15.8949 1.86848 16.6447C2.14146 17.3945 2.57548 18.0754 3.13998 18.6394L20.1 35.5794C20.719 36.2058 21.4808 36.6724 22.32 36.9394L28.04 38.7394C28.2719 38.8182 28.5151 38.8587 28.76 38.8594C29.0756 38.8613 29.3884 38.8004 29.6803 38.6802C29.9722 38.56 30.2372 38.383 30.46 38.1594C30.7632 37.8483 30.977 37.4612 31.0791 37.039C31.1811 36.6167 31.1676 36.1747 31.04 35.7594L29.22 29.9994C28.961 29.1554 28.5012 28.3868 27.88 27.7594L11.08 11.0194C10.5382 10.4714 9.89367 10.0357 9.18327 9.7371C8.47288 9.43853 7.71056 9.283 6.93998 9.27942C5.82929 9.27189 4.74451 9.61482 3.83998 10.2594C3.19052 10.728 2.65037 11.3318 2.25676 12.0293C1.86314 12.7267 1.62542 13.5012 1.55998 14.2994ZM8.39998 19.6594L12 16.1194L25.76 29.9994C26.0381 30.287 26.2438 30.6366 26.36 31.0194L27.82 35.6194L23.24 33.9994C22.8559 33.876 22.5064 33.6636 22.22 33.3794L8.39998 19.6594ZM4.53998 14.5394C4.56941 14.1734 4.67977 13.8184 4.86308 13.5002C5.0464 13.182 5.29809 12.9085 5.59998 12.6994C5.99811 12.4204 6.47384 12.2735 6.95998 12.2794C7.71349 12.2934 8.43152 12.6021 8.95998 13.1394L9.81998 13.9994L6.27998 17.5194L5.27998 16.5194C5.02062 16.2627 4.82011 15.9526 4.69235 15.6108C4.56458 15.2689 4.51259 14.9034 4.53998 14.5394ZM27.7207 17.04H21.7207C21.3229 17.04 20.9413 16.882 20.66 16.6007C20.3787 16.3194 20.2207 15.9379 20.2207 15.54C20.2207 15.1422 20.3787 14.7607 20.66 14.4794C20.9413 14.1981 21.3229 14.04 21.7207 14.04H27.7207C28.1185 14.04 28.5001 14.1981 28.7814 14.4794C29.0627 14.7607 29.2207 15.1422 29.2207 15.54C29.2207 15.9379 29.0627 16.3194 28.7814 16.6007C28.5001 16.882 28.1185 17.04 27.7207 17.04ZM37.9999 26H32.4199C32.0221 26 31.6406 25.842 31.3593 25.5607C31.078 25.2794 30.9199 24.8978 30.9199 24.5C30.9199 24.1022 31.078 23.7206 31.3593 23.4393C31.6406 23.158 32.0221 23 32.4199 23H37.9999C38.3977 23 38.7793 23.158 39.0606 23.4393C39.3419 23.7206 39.4999 24.1022 39.4999 24.5C39.4999 24.8978 39.3419 25.2794 39.0606 25.5607C38.7793 25.842 38.3977 26 37.9999 26ZM35.04 34.9805H37.54C37.9379 34.9805 38.3194 34.8224 38.6007 34.5411C38.882 34.2598 39.04 33.8783 39.04 33.4805C39.04 33.0826 38.882 32.7011 38.6007 32.4198C38.3194 32.1385 37.9379 31.9805 37.54 31.9805H35.04C34.6422 31.9805 34.2607 32.1385 33.9794 32.4198C33.6981 32.7011 33.54 33.0826 33.54 33.4805C33.54 33.8783 33.6981 34.2598 33.9794 34.5411C34.2607 34.8224 34.6422 34.9805 35.04 34.9805Z" fill="#C02929"/>
</svg>
