<svg width="25" height="24" viewBox="0 0 25 24" fill="none" xmlns="http://www.w3.org/2000/svg">
<path d="M16.6504 12.0511H16.0804C16.7126 12.5117 17.2722 13.0645 17.7404 13.6911C18.7772 13.9361 19.7013 14.5232 20.3635 15.3578C21.0257 16.1924 21.3874 17.2257 21.3904 18.2911C21.3877 18.8446 21.1667 19.3747 20.7753 19.766C20.3839 20.1574 19.8538 20.3785 19.3004 20.3811H18.8104C18.5707 20.9376 18.2318 21.4458 17.8104 21.8811H19.3004C20.2525 21.8811 21.1656 21.5029 21.8389 20.8296C22.5121 20.1564 22.8904 19.2432 22.8904 18.2911C22.8904 17.4716 22.7289 16.6602 22.4154 15.9031C22.1018 15.1461 21.6421 14.4582 21.0627 13.8787C20.4833 13.2993 19.7954 12.8397 19.0383 12.5261C18.2812 12.2125 17.4698 12.0511 16.6504 12.0511Z" fill="#757575"/>
<path d="M15.0104 3.63109H15.0604C15.7701 3.67364 16.4369 3.98559 16.9244 4.50321C17.4119 5.02082 17.6834 5.70504 17.6834 6.41609C17.6834 7.12715 17.4119 7.81137 16.9244 8.32898C16.4369 8.8466 15.7701 9.15854 15.0604 9.20109H15.0004C14.7363 9.69849 14.3992 10.1535 14.0004 10.5511C14.3519 10.6512 14.7149 10.705 15.0804 10.7111C15.699 10.7271 16.3138 10.609 16.8825 10.365C17.4512 10.121 17.9604 9.7569 18.3752 9.29759C18.7899 8.83828 19.1003 8.29468 19.2852 7.70409C19.4701 7.1135 19.525 6.4899 19.4462 5.8761C19.3673 5.26229 19.1567 4.6728 18.8286 4.14808C18.5005 3.62337 18.0627 3.17585 17.5454 2.83624C17.0281 2.49662 16.4434 2.27295 15.8315 2.18058C15.2195 2.08821 14.5949 2.12932 14.0004 2.30109C14.4036 2.68969 14.7443 3.13833 15.0104 3.63109Z" fill="#757575"/>
<path d="M9.94035 3.62109C10.4926 3.61911 11.033 3.78106 11.4931 4.08642C11.9532 4.39179 12.3124 4.82683 12.5251 5.33646C12.7378 5.84609 12.7945 6.40738 12.688 6.94924C12.5814 7.4911 12.3165 7.98917 11.9267 8.38036C11.5369 8.77155 11.0398 9.03826 10.4983 9.14673C9.95686 9.2552 9.39538 9.20053 8.88499 8.98966C8.3746 8.77879 7.93827 8.4212 7.63125 7.96217C7.32424 7.50314 7.16035 6.96333 7.16035 6.41109C7.16035 5.67287 7.45292 4.96473 7.97398 4.44179C8.49505 3.91885 9.20213 3.62374 9.94035 3.62109ZM9.94035 2.12109C9.09187 2.12109 8.26244 2.3727 7.55696 2.84409C6.85147 3.31548 6.30161 3.98549 5.97691 4.76938C5.65221 5.55328 5.56725 6.41585 5.73278 7.24803C5.89831 8.08021 6.3069 8.84461 6.90686 9.44458C7.50683 10.0445 8.27123 10.4531 9.10341 10.6187C9.93559 10.7842 10.7982 10.6992 11.5821 10.3745C12.366 10.0498 13.036 9.49998 13.5074 8.79449C13.9787 8.089 14.2304 7.25958 14.2304 6.41109C14.2304 5.84772 14.1194 5.28987 13.9038 4.76938C13.6882 4.2489 13.3722 3.77597 12.9738 3.37761C12.5755 2.97924 12.1026 2.66324 11.5821 2.44765C11.0616 2.23206 10.5037 2.12109 9.94035 2.12109Z" fill="#757575"/>
<path d="M10.8204 12.0011H9.07035C8.93603 11.9961 8.80311 12.0299 8.68748 12.0984C8.57185 12.167 8.4784 12.2673 8.41829 12.3876C8.35818 12.5078 8.33395 12.6428 8.3485 12.7764C8.36305 12.91 8.41577 13.0366 8.50035 13.1411L9.50035 14.6211L8.73035 16.8911C8.67478 17.063 8.66681 17.2468 8.70731 17.4228C8.74781 17.5989 8.83525 17.7607 8.96035 17.8911L9.61035 18.5611C9.64859 18.6007 9.69442 18.6322 9.7451 18.6537C9.79579 18.6753 9.85029 18.6864 9.90535 18.6864C9.96041 18.6864 10.0149 18.6753 10.0656 18.6537C10.1163 18.6322 10.1621 18.6007 10.2004 18.5611L10.8604 17.8911C10.9837 17.7597 11.0693 17.5974 11.108 17.4214C11.1468 17.2454 11.1372 17.0621 11.0804 16.8911L10.3104 14.6211L11.3104 13.1411C11.3911 13.0419 11.4431 12.9225 11.4608 12.7959C11.4785 12.6692 11.4612 12.5402 11.4107 12.4227C11.3602 12.3052 11.2784 12.2038 11.1744 12.1295C11.0703 12.0551 10.9479 12.0107 10.8204 12.0011Z" fill="#757575"/>
<path d="M12.9504 12.2211C13.0687 12.731 13.0013 13.2664 12.7604 13.7311C13.7663 13.9979 14.6558 14.5897 15.2906 15.4143C15.9254 16.239 16.2699 17.2504 16.2704 18.2911C16.2704 18.8437 16.0515 19.3738 15.6617 19.7654C15.272 20.1571 14.7429 20.3784 14.1904 20.3811H5.70035C5.14686 20.3785 4.61679 20.1574 4.2254 19.766C3.83402 19.3747 3.61298 18.8446 3.61035 18.2911C3.61313 17.2495 3.95964 16.238 4.59611 15.4134C5.23258 14.5889 6.12341 13.9975 7.13035 13.7311C6.88939 13.2664 6.82203 12.731 6.94035 12.2211C5.56755 12.5377 4.34258 13.3102 3.46537 14.4126C2.58816 15.5151 2.1105 16.8823 2.11035 18.2911C2.11035 19.2432 2.48858 20.1564 3.16184 20.8296C3.83509 21.5029 4.74822 21.8811 5.70035 21.8811H14.1904C14.6613 21.8811 15.1277 21.7882 15.5627 21.6076C15.9977 21.4271 16.3928 21.1625 16.7253 20.829C17.0579 20.4955 17.3214 20.0997 17.5007 19.6642C17.68 19.2287 17.7717 18.7621 17.7704 18.2911C17.7707 16.8836 17.2945 15.5175 16.4192 14.4153C15.544 13.313 14.3213 12.5396 12.9504 12.2211Z" fill="#757575"/>
</svg>
