<svg width="24" height="25" viewBox="0 0 24 25" fill="none" xmlns="http://www.w3.org/2000/svg">
<path d="M16 16.5L12 12.5L8 16.5" stroke="#C02929" stroke-linecap="round" stroke-linejoin="round"/>
<path d="M12 12.5V21.5" stroke="#C02929" stroke-linecap="round" stroke-linejoin="round"/>
<path d="M20.39 18.8914C21.3653 18.3597 22.1358 17.5183 22.5798 16.5001C23.0239 15.4818 23.1162 14.3447 22.8422 13.2681C22.5682 12.1916 21.9434 11.237 21.0666 10.5549C20.1898 9.87283 19.1108 9.50218 18 9.50145H16.74C16.4373 8.33069 15.8731 7.24378 15.0899 6.32244C14.3067 5.4011 13.3248 4.6693 12.2181 4.18206C11.1113 3.69481 9.90851 3.46481 8.70008 3.50933C7.49164 3.55385 6.30903 3.87175 5.24114 4.43911C4.17325 5.00648 3.24787 5.80855 2.53458 6.78503C1.82129 7.76151 1.33865 8.88699 1.12294 10.0768C0.90723 11.2667 0.964065 12.49 1.28917 13.6547C1.61428 14.8194 2.1992 15.8953 2.99996 16.8014" stroke="#C02929" stroke-linecap="round" stroke-linejoin="round"/>
</svg>
