<svg width="24" height="24" viewBox="0 0 24 24" fill="none" xmlns="http://www.w3.org/2000/svg">
<path d="M14.3998 18.9297C14.3013 18.9301 14.2036 18.9109 14.1126 18.8731C14.0216 18.8353 13.9391 18.7798 13.8698 18.7097L8.74982 13.5897C8.32847 13.1678 8.0918 12.5959 8.0918 11.9997C8.0918 11.4034 8.32847 10.8315 8.74982 10.4097L13.8698 5.28965C14.0104 5.1492 14.2011 5.07031 14.3998 5.07031C14.5986 5.07031 14.7892 5.1492 14.9298 5.28965C15.0006 5.3586 15.0568 5.44101 15.0952 5.53204C15.1336 5.62307 15.1534 5.72086 15.1534 5.81965C15.1534 5.91845 15.1336 6.01624 15.0952 6.10726C15.0568 6.19829 15.0006 6.28071 14.9298 6.34965L9.80982 11.4697C9.66937 11.6103 9.59048 11.8009 9.59048 11.9997C9.59048 12.1984 9.66937 12.389 9.80982 12.5297L14.9298 17.6497C15.0006 17.7186 15.0568 17.801 15.0952 17.892C15.1336 17.9831 15.1534 18.0809 15.1534 18.1797C15.1534 18.2784 15.1336 18.3762 15.0952 18.4673C15.0568 18.5583 15.0006 18.6407 14.9298 18.7097C14.8609 18.7802 14.7784 18.8361 14.6873 18.8739C14.5962 18.9117 14.4984 18.9307 14.3998 18.9297Z" fill="#C02929"/>
</svg>
