<svg width="25" height="24" viewBox="0 0 25 24" fill="none" xmlns="http://www.w3.org/2000/svg">
<path d="M10.7195 12.0601H14.2795C16.136 12.0601 17.9165 12.7976 19.2293 14.1103C20.542 15.4231 21.2795 17.2035 21.2795 19.0601C21.2795 20.1209 20.8581 21.1383 20.108 21.8885C19.3578 22.6386 18.3404 23.0601 17.2795 23.0601H7.76953C6.70867 23.0601 5.69125 22.6386 4.9411 21.8885C4.19096 21.1383 3.76953 20.1209 3.76953 19.0601C3.76948 17.2122 4.50011 15.4392 5.80207 14.1279C7.10403 12.8166 8.87169 12.0733 10.7195 12.0601Z" fill="#757575"/>
<path d="M12.4995 10.54C15.1339 10.54 17.2695 8.4044 17.2695 5.77C17.2695 3.1356 15.1339 1 12.4995 1C9.86509 1 7.72949 3.1356 7.72949 5.77C7.72949 8.4044 9.86509 10.54 12.4995 10.54Z" fill="#757575"/>
</svg>
