<svg width="48" height="48" viewBox="0 0 48 48" fill="none" xmlns="http://www.w3.org/2000/svg">
<path d="M30.9201 5.12109C32.108 5.11319 33.2857 5.34 34.3857 5.78851C35.4857 6.23701 36.4862 6.89838 37.3299 7.73463C38.1736 8.57088 38.8438 9.56555 39.302 10.6615C39.7602 11.7575 39.9975 12.9332 40.0001 14.1211V33.8811C39.9948 36.2664 39.0449 38.5525 37.3582 40.2392C35.6715 41.9259 33.3854 42.8758 31.0001 42.8811H17.0801C15.8922 42.889 14.7145 42.6622 13.6145 42.2137C12.5145 41.7652 11.5139 41.1038 10.6702 40.2676C9.82655 39.4313 9.15636 38.4366 8.69813 37.3407C8.23991 36.2447 8.00269 35.069 8.00008 33.8811V14.1211C8.00536 11.7358 8.95527 9.44965 10.642 7.76297C12.3286 6.07628 14.6148 5.12638 17.0001 5.12109H30.9201ZM17.0801 2.12109C13.8975 2.12109 10.8452 3.38538 8.5948 5.63581C6.34436 7.88625 5.08008 10.9385 5.08008 14.1211V33.8811C5.08008 37.0637 6.34436 40.1159 8.5948 42.3664C10.8452 44.6168 13.8975 45.8811 17.0801 45.8811H30.9201C34.1027 45.8811 37.1549 44.6168 39.4054 42.3664C41.6558 40.1159 42.9201 37.0637 42.9201 33.8811V14.1211C42.9201 10.9385 41.6558 7.88625 39.4054 5.63581C37.1549 3.38538 34.1027 2.12109 30.9201 2.12109H17.0801Z" fill="#C02929"/>
<path d="M33.7203 35.2607H25.2803C24.8824 35.2607 24.5009 35.1027 24.2196 34.8214C23.9383 34.5401 23.7803 34.1586 23.7803 33.7607C23.7803 33.3629 23.9383 32.9814 24.2196 32.7001C24.5009 32.4188 24.8824 32.2607 25.2803 32.2607H33.7203C34.1181 32.2607 34.4996 32.4188 34.7809 32.7001C35.0622 32.9814 35.2203 33.3629 35.2203 33.7607C35.2203 34.1586 35.0622 34.5401 34.7809 34.8214C34.4996 35.1027 34.1181 35.2607 33.7203 35.2607Z" fill="#C02929"/>
<path d="M33.7203 26.2607H25.2803C24.8824 26.2607 24.5009 26.1027 24.2196 25.8214C23.9383 25.5401 23.7803 25.1586 23.7803 24.7607C23.7803 24.3629 23.9383 23.9814 24.2196 23.7001C24.5009 23.4188 24.8824 23.2607 25.2803 23.2607H33.7203C34.1181 23.2607 34.4996 23.4188 34.7809 23.7001C35.0622 23.9814 35.2203 24.3629 35.2203 24.7607C35.2203 25.1586 35.0622 25.5401 34.7809 25.8214C34.4996 26.1027 34.1181 26.2607 33.7203 26.2607Z" fill="#C02929"/>
<path d="M33.7203 16.9609H25.2803C24.8824 16.9609 24.5009 16.8029 24.2196 16.5216C23.9383 16.2403 23.7803 15.8588 23.7803 15.4609C23.7803 15.0631 23.9383 14.6816 24.2196 14.4003C24.5009 14.119 24.8824 13.9609 25.2803 13.9609H33.7203C34.1181 13.9609 34.4996 14.119 34.7809 14.4003C35.0622 14.6816 35.2203 15.0631 35.2203 15.4609C35.2203 15.8588 35.0622 16.2403 34.7809 16.5216C34.4996 16.8029 34.1181 16.9609 33.7203 16.9609Z" fill="#C02929"/>
<path d="M20.6397 13.1813L17.2797 16.5413C17.1396 16.678 16.9738 16.7854 16.7918 16.8575C16.6099 16.9296 16.4154 16.9649 16.2197 16.9613C16.0162 16.961 15.815 16.9182 15.629 16.8355C15.443 16.7528 15.2764 16.6322 15.1397 16.4813L12.9997 14.1213C12.7452 13.8506 12.6035 13.493 12.6035 13.1213C12.6035 12.7497 12.7452 12.3921 12.9997 12.1213C13.2835 11.8452 13.6638 11.6907 14.0597 11.6907C14.4557 11.6907 14.836 11.8452 15.1197 12.1213L16.1797 13.3213L18.4997 11.0613C18.7869 10.784 19.1705 10.6289 19.5697 10.6289C19.969 10.6289 20.3526 10.784 20.6397 11.0613C20.9206 11.3426 21.0784 11.7238 21.0784 12.1213C21.0784 12.5188 20.9206 12.9001 20.6397 13.1813Z" fill="#C02929"/>
<path d="M20.6401 22.4807L17.2801 25.8207C16.999 26.1021 16.6177 26.2604 16.2201 26.2607C16.0152 26.2567 15.8135 26.2101 15.6276 26.1241C15.4417 26.038 15.2757 25.9143 15.1401 25.7607L13.0001 23.4207C12.8474 23.279 12.7259 23.1071 12.6434 22.9159C12.5608 22.7247 12.519 22.5184 12.5205 22.3102C12.5221 22.1019 12.567 21.8963 12.6524 21.7063C12.7378 21.5164 12.8618 21.3463 13.0165 21.2069C13.1712 21.0675 13.3533 20.9618 13.5511 20.8967C13.7489 20.8315 13.9581 20.8082 14.1654 20.8283C14.3727 20.8485 14.5735 20.9115 14.7551 21.0135C14.9367 21.1155 15.095 21.2542 15.2201 21.4207L16.2801 22.6007L18.5001 20.3807C18.7812 20.0969 19.1635 19.9365 19.563 19.9346C19.9624 19.9327 20.3463 20.0896 20.6301 20.3707C20.9138 20.6519 21.0743 21.0342 21.0762 21.4337C21.0781 21.8331 20.9212 22.2169 20.6401 22.5007V22.4807Z" fill="#C02929"/>
<path d="M20.6402 31.6407L17.2802 34.9807C16.9992 35.2621 16.6179 35.4204 16.2202 35.4207C16.0167 35.4204 15.8155 35.3775 15.6295 35.2949C15.4435 35.2122 15.2768 35.0916 15.1402 34.9407L13.0002 32.5807C12.7193 32.2995 12.5615 31.9182 12.5615 31.5207C12.5615 31.1232 12.7193 30.742 13.0002 30.4607C13.2863 30.1892 13.6658 30.0379 14.0602 30.0379C14.4547 30.0379 14.8341 30.1892 15.1202 30.4607L16.1802 31.6607L18.4002 29.4207C18.6873 29.1433 19.071 28.9883 19.4702 28.9883C19.8694 28.9883 20.2531 29.1433 20.5402 29.4207C20.7014 29.5542 20.8329 29.72 20.9262 29.9073C21.0195 30.0947 21.0726 30.2995 21.082 30.5086C21.0915 30.7177 21.057 30.9264 20.9809 31.1214C20.9048 31.3164 20.7888 31.4933 20.6402 31.6407Z" fill="#C02929"/>
</svg>
